<svg xmlns="http://www.w3.org/2000/svg" viewBox="0 0 600 600"><defs><style>.cls-1{fill:#fff;}.cls-2,.cls-3,.cls-4,.cls-5{fill:#006a71;}.cls-2{opacity:0.6;}.cls-3{opacity:0.2;}.cls-4{opacity:0.4;}</style></defs><title>favicon</title><g id="Layer_2" data-name="Layer 2"><circle class="cls-1" cx="300" cy="300" r="299"/></g><g id="Capa_1" data-name="Capa 1"><polygon class="cls-2" points="333.35 301.31 333.35 126.08 501.43 126.08 333.35 301.31"/><path class="cls-3" d="M241.81,202c-73.67,0-133.39,55.59-133.39,124.17s59.72,124.17,133.39,124.17Z"/><polygon class="cls-4" points="529.5 217.62 529.5 473.92 283.65 473.92 529.5 217.62"/><path class="cls-5" d="M256.75,442.54H213C134.44,442.54,70.5,378.6,70.5,300S134.44,157.46,213,157.46v20.92a121.62,121.62,0,0,0,0,243.24h34.75L479.58,178.38H312.42v136H291.5V157.46H528.42Z"/><rect class="cls-5" x="304.58" y="432.08" width="222.31" height="20.92"/></g></svg>